# xmcd
#
# Track frame offsets:
#	150
#	8642
#	24785
#	36180
#	55833
#	76991
#	92741
#	106780
#	116714
#	129762
#	147191
#	161551
#	175222
#	190891
#	209017
#	218786
#	227561
#	241256
#	258501
#	274261
#	285371
#	300339
#	315338
#	331430
# Disc length: 4605 seconds
# Revision: 1
# Processed by: cddbd v1.5.2PL0 Copyright (c) Steve Scherf et al.
#
# Submitted via: libkcddb 0.31
#
DISCID=3c11fb18
DTITLE=Lou Rawls - Black and Blue/Tobacco Road
DYEAR=2006
DGENRE=Blues
TTITLE0=Roll 'Em Pete
TTITLE1=I'd Rather Drink Muddy Water
TTITLE2=How Long, How Long Blues
TTITLE3=Everyday I Have The Blues
TTITLE4=St. James Infirmary
TTITLE5=(What Did I Do To Be So) Black And Blue
TTITLE6=Gloomy Sunday
TTITLE7=Kansas City
TTITLE8=Going' To Chicago Blues
TTITLE9=Trouble In Mind
TTITLE10=World Of Trouble
TTITLE11=Six Cold Feet Of Ground
TTITLE12=Strange Fruit
TTITLE13=Tobacco Road
TTITLE14=Cotton Fields
TTITLE15=Rockin' Chair
TTITLE16=Stormy Weather
TTITLE17=Ol' Man River
TTITLE18=Blues For A Four-String Guitar
TTITLE19=St. Louis Blues
TTITLE20=Georgia On My Mind
TTITLE21=Sentimental Journey
TTITLE22=Summertime
TTITLE23=When It's Sleepy Time Down South
EXTD=
EXTT0=
EXTT1=
EXTT2=
EXTT3=
EXTT4=
EXTT5=
EXTT6=
EXTT7=
EXTT8=
EXTT9=
EXTT10=
EXTT11=
EXTT12=
EXTT13=
EXTT14=
EXTT15=
EXTT16=
EXTT17=
EXTT18=
EXTT19=
EXTT20=
EXTT21=
EXTT22=
EXTT23=
PLAYORDER=
